<svg width="75" height="76" viewBox="0 0 75 76" fill="none" xmlns="http://www.w3.org/2000/svg">
<path d="M30.19 69.83C30.11 69.83 30.03 69.81 29.95 69.77L24.46 66.6C24.38 66.55 24.31 66.48 24.27 66.4L20.59 59L17.43 55.28C17.29 55.17 16.99 54.86 16.99 54.43C16.99 54.22 17.07 53.92 17.43 53.65C17.75 53.38 18.92 51.08 19.84 49.09C20.06 47.74 20.17 45.4 19.52 44.69C18.92 44.03 16.53 44.22 15.01 44.57C14.99 44.57 14.97 44.58 14.95 44.58L12.41 44.84C12.24 44.85 11.02 44.85 10.48 44C10.13 43.46 10.17 42.75 10.59 41.88C10.63 41.79 10.7 41.72 10.79 41.67C11.33 41.37 16.14 38.72 17.23 38.5C17.48 38.45 17.88 38.33 18.34 38.2C20.23 37.65 21.87 37.22 22.71 37.66C24.31 38.48 25.54 39.01 25.88 39.07C26.04 38.98 26.4 38.67 26.67 38.44C27.58 37.66 28.52 36.86 29.27 37.15C29.99 37.44 32.15 38.67 32.73 39C34.42 38.78 36.47 38.64 36.98 39.16C37.6 39.78 38.07 41.42 37.18 43.05C37.6 43.88 38.14 44.65 38.38 44.77C38.73 44.65 39.74 43.61 40.59 42.48C40.63 42.43 40.67 42.39 40.73 42.36C40.81 42.31 42.82 41.16 44.32 42.28C45.65 43.28 46.94 44.46 46.43 45.7C45.97 46.81 45.27 48.14 43.83 48.66C42.96 48.98 43.05 50.36 43.14 50.94C43.14 50.96 43.15 50.99 43.16 51.02C43.21 51.22 43.34 51.68 42.91 52.12C42.56 52.48 41.87 52.79 40.74 53.1C38.68 53.68 38.05 54.07 37.91 54.17L35.64 57.83C35.42 58.31 34.98 59.06 34.36 58.98C34.11 58.94 31.57 58.84 30 58.77C29.64 58.8 28.66 58.99 28.41 59.5C27.93 60.52 27.74 61.32 27.76 61.61C27.89 61.6 28.03 61.59 28.18 61.58C29.03 61.5 29.83 61.43 30.27 61.81C30.44 61.95 30.54 62.15 30.56 62.38C30.6 62.87 30.71 64.04 30.75 64.53L32.63 65.83C32.69 65.87 32.74 65.92 32.77 65.98C32.8 66.03 33.51 67.29 32.56 68.38C31.74 69.31 30.35 69.77 30.29 69.79C30.28 69.82 30.23 69.83 30.19 69.83ZM25.06 65.84L30.24 68.83C30.61 68.69 31.41 68.33 31.89 67.77C32.29 67.31 32.12 66.77 32.03 66.56L30.07 65.2C29.95 65.12 29.88 64.99 29.87 64.85C29.87 64.85 29.72 63.22 29.66 62.54C29.42 62.45 28.67 62.52 28.3 62.55C28.12 62.57 27.94 62.58 27.78 62.59C27.46 62.61 27.19 62.48 27.02 62.24C26.55 61.55 27.17 59.98 27.58 59.11C28.11 57.99 29.8 57.85 29.99 57.83C30.01 57.83 30.02 57.83 30.04 57.83C30.68 57.86 33.76 57.98 34.43 58.04C34.53 57.94 34.71 57.67 34.81 57.43C34.82 57.41 34.83 57.39 34.84 57.37L37.16 53.62C37.17 53.6 37.19 53.57 37.21 53.55C37.33 53.41 37.93 52.91 40.5 52.19C42.16 51.73 42.28 51.41 42.29 51.4C42.29 51.38 42.27 51.32 42.26 51.28C42.24 51.21 42.22 51.14 42.21 51.08C41.97 49.36 42.44 48.15 43.52 47.76C44.61 47.37 45.18 46.26 45.56 45.33C45.86 44.61 44.28 43.43 43.76 43.04C42.89 42.39 41.62 42.97 41.3 43.13C40.34 44.39 39.05 45.83 38.27 45.71C37.42 45.58 36.55 43.93 36.22 43.22C36.15 43.07 36.16 42.9 36.25 42.76C37.12 41.36 36.6 40.09 36.32 39.81C36.02 39.65 34.2 39.75 32.71 39.95C32.61 39.96 32.5 39.94 32.41 39.89C31.47 39.35 29.53 38.26 28.93 38.02C28.66 37.98 27.71 38.8 27.31 39.14C26.63 39.72 26.29 40 25.94 40C25.33 40 23.39 39.05 22.29 38.48C21.71 38.18 19.7 38.77 18.62 39.09C18.14 39.23 17.72 39.35 17.43 39.41C16.73 39.55 13.42 41.29 11.4 42.4C11.24 42.75 11.13 43.18 11.3 43.45C11.52 43.8 12.2 43.85 12.37 43.85L14.84 43.59C15.38 43.47 19.05 42.7 20.24 44C21.42 45.3 20.85 48.86 20.78 49.26C20.77 49.3 20.76 49.34 20.74 49.38C20.12 50.73 18.61 53.93 18 54.37C17.99 54.38 17.97 54.39 17.97 54.4C17.99 54.44 18.04 54.48 18.06 54.5C18.09 54.52 18.11 54.55 18.14 54.57L21.36 58.37C21.39 58.4 21.41 58.43 21.42 58.47L25.06 65.84Z" fill="#384150" stroke="#384150" stroke-width="0.6667" stroke-miterlimit="10"/>
<path d="M51.58 42.88C51.41 42.88 51.26 42.86 51.13 42.8C51.11 42.79 48.88 41.85 48.72 40.58C48.68 40.27 48.75 39.81 49.29 39.4C49.92 38.92 50.45 38.61 50.83 38.38C51.15 38.19 51.47 38 51.52 37.89C51.57 37.69 51.41 36.79 51.21 35.98C50.42 35.96 48.75 35.77 48.47 34.61C48.15 33.24 49.56 31.93 49.62 31.88C49.68 31.82 49.76 31.78 49.85 31.76L57.61 30.18C57.64 30.17 57.67 30.17 57.71 30.17H58.5C58.64 30.17 58.76 30.23 58.85 30.33L61.19 32.92H64.25C64.51 32.92 64.73 33.13 64.73 33.4V36.52C64.73 36.72 64.6 36.91 64.41 36.97L62.42 37.65L60.98 40.24C60.94 40.31 60.88 40.37 60.81 40.42L58.06 42.06C57.94 42.13 57.79 42.15 57.65 42.1C57.52 42.05 57.41 41.95 57.36 41.81C57 40.82 56.4 40.01 56.2 40.06C55.72 40.14 54.78 41.22 54.29 41.92C54.25 41.98 54.19 42.04 54.12 42.07C53.58 42.32 52.4 42.88 51.58 42.88ZM51.58 35.01C51.8 35.01 51.98 35.15 52.04 35.36C52.33 36.43 52.62 37.8 52.38 38.29C52.2 38.65 51.85 38.86 51.32 39.18C50.93 39.41 50.45 39.7 49.87 40.14C49.66 40.3 49.67 40.4 49.67 40.44C49.73 40.89 50.8 41.61 51.5 41.9C51.74 41.98 52.71 41.66 53.58 41.23C53.94 40.73 55.07 39.24 56.04 39.07C56.99 38.9 57.69 40.09 58.05 40.9L60.21 39.61L61.67 37C61.73 36.9 61.82 36.82 61.93 36.78L63.77 36.15V33.85H60.97C60.83 33.85 60.71 33.79 60.62 33.69L58.28 31.1H57.75L50.17 32.65C49.84 32.99 49.25 33.75 49.4 34.37C49.51 34.84 50.73 35.04 51.56 35.01C51.56 35.01 51.57 35.01 51.58 35.01Z" fill="#384150" stroke="#384150" stroke-width="0.6667" stroke-miterlimit="10"/>
<path d="M46.01 25.18C46.09 24.54 46.13 23.89 46.13 23.23C46.13 14.16 38.78 6.81 29.71 6.81C20.64 6.81 13.3 14.17 13.3 23.24C13.3 24.05 13.36 24.85 13.48 25.63C13.48 25.63 13.52 30.89 19.21 38.81C24.9 46.73 25.32 47.78 25.32 47.78C25.32 47.78 27.05 50 29.72 50C32.39 50 34.18 46.83 34.18 46.83C34.18 46.83 46.76 30.36 46.01 25.18C46.01 25.19 46.01 25.19 46.01 25.18Z" fill="white"/>
<path d="M29.71 50.94C26.61 50.94 24.64 48.46 24.56 48.36L24.48 48.25L24.43 48.12C24.42 48.1 23.78 46.79 18.43 39.35C12.9 31.65 12.55 26.36 12.53 25.69C12.41 24.87 12.35 24.04 12.35 23.23C12.35 13.65 20.14 5.85999 29.72 5.85999C39.3 5.85999 47.09 13.65 47.09 23.23C47.09 23.86 47.05 24.51 46.98 25.17C47.57 30.64 36.44 45.43 34.98 47.35C34.67 47.85 32.71 50.94 29.71 50.94ZM26.11 47.25C26.39 47.57 27.78 49.04 29.71 49.04C31.77 49.04 33.33 46.38 33.34 46.36L33.41 46.25C38.31 39.84 45.38 29.11 45.07 25.47L45.02 25.36L45.05 25.08C45.13 24.44 45.16 23.84 45.16 23.24C45.16 14.71 38.22 7.77998 29.7 7.77998C21.18 7.77998 14.24 14.72 14.24 23.24C14.24 23.98 14.3 24.74 14.41 25.49L14.51 26.17L14.47 26.19C14.67 27.71 15.6 32.18 19.96 38.25C24.66 44.76 25.82 46.7 26.11 47.25Z" fill="#384150"/>
<path d="M29.71 28.99C32.8856 28.99 35.46 26.4156 35.46 23.24C35.46 20.0644 32.8856 17.49 29.71 17.49C26.5344 17.49 23.96 20.0644 23.96 23.24C23.96 26.4156 26.5344 28.99 29.71 28.99Z" fill="white"/>
<path d="M29.71 29.95C26.01 29.95 23 26.94 23 23.24C23 19.54 26.01 16.53 29.71 16.53C33.41 16.53 36.42 19.54 36.42 23.24C36.42 26.94 33.41 29.95 29.71 29.95ZM29.71 18.44C27.06 18.44 24.91 20.59 24.91 23.24C24.91 25.89 27.06 28.04 29.71 28.04C32.36 28.04 34.51 25.89 34.51 23.24C34.51 20.59 32.36 18.44 29.71 18.44Z" fill="#384150"/>
</svg>
